<?xml version="1.0" encoding="UTF-8"?>
<svg id="Warstwa_1" data-name="Warstwa 1" xmlns="http://www.w3.org/2000/svg" xmlns:xlink="http://www.w3.org/1999/xlink" viewBox="0 0 179.77 179.55">
  <defs>
    <style>
      .cls-1 {
        fill: #2a11a5;
      }

      .cls-2 {
        fill: url(#Gradient_bez_nazwy_51);
      }
    </style>
    <linearGradient id="Gradient_bez_nazwy_51" data-name="Gradient bez nazwy 51" x1="0" y1="89.74" x2="179.71" y2="89.74" gradientUnits="userSpaceOnUse">
      <stop offset="0" stop-color="#17d7c7"/>
      <stop offset=".06" stop-color="#22cec9"/>
      <stop offset=".71" stop-color="#9873e5"/>
      <stop offset="1" stop-color="#c74ff0"/>
    </linearGradient>
  </defs>
  <path class="cls-2" d="M106.77,55.6h15.51v-14.81h16.64v14.81h-16.64v15.49h16.64v12.46h12.94v-12.46h1.94c25.34,0,25.91-16.19,25.91-23.89,0-3.83-1.52-10.05-2.37-11.81l-12.21,5.7c.02.28.8,3.66.8,3.98,0,4.83,0,10.53-10.42,10.53h-3.65v-27.74h-29.58v-3.65c0-10.4,5.68-10.4,10.53-10.4.31,0,3.7.74,3.98.78l5.7-12.22c-1.74-.83-7.98-2.37-11.79-2.37-7.7,0-23.93.59-23.93,25.91v1.94h-12.51v12.94h12.51v14.81ZM153.58,108.29h-1.94v-12.2h-12.94v12.2h-16.42v15.51h16.42v14.9h-16.42v-14.9h-15.51v14.9h-12.59v12.94h12.59v1.94c0,25.34,16.23,25.91,23.93,25.91,3.81,0,10.05-1.52,11.79-2.37l-5.7-12.22c-.28.06-3.66.8-3.98.8-4.85,0-10.53,0-10.53-10.4v-3.66h29.43l-.07-27.84h3.66c10.4,0,10.4,5.68,10.4,10.51,0,.33-.74,3.7-.8,3.98l12.22,5.72c.85-1.76,2.37-7.98,2.37-11.81,0-7.68-.57-23.91-25.91-23.91ZM71.38,25.91C71.38.59,55.17,0,47.49,0c-3.83,0-10.05,1.54-11.81,2.37l5.7,12.22c.28-.04,3.65-.78,3.98-.78,4.85,0,10.53,0,10.53,10.4v3.65h-27.82v27.74h-3.66c-10.4,0-10.4-5.7-10.4-10.53,0-.31.76-3.7.8-3.98l-12.21-5.7c-.85,1.76-2.37,7.98-2.37,11.81,0,7.7.56,23.89,25.89,23.89h1.96v12.4h12.92v-12.4h14.9v-15.49h-14.9v-14.81h14.9v14.81h15.49v-14.81h12.16v-12.94h-12.16v-1.94ZM71.38,123.8h-15.49v14.9h-15.1v-14.9h15.1v-15.51h-15.1v-12.2h-12.94v12.2h-1.94C.57,108.29,0,124.52,0,132.2c0,3.83,1.54,10.05,2.37,11.81l12.22-5.72c-.04-.28-.78-3.65-.78-3.98,0-4.83,0-10.51,10.4-10.51h3.65v27.63h.09v.2h27.95v3.66c0,10.4-5.68,10.4-10.53,10.4-.33,0-3.7-.74-3.98-.8l-5.7,12.22c1.76.85,7.98,2.37,11.81,2.37,7.68,0,23.89-.57,23.89-25.91v-1.94h12.07v-12.94h-12.07v-14.9Z"/>
  <circle class="cls-1" cx="63.19" cy="89.82" r="5.5"/>
  <circle class="cls-1" cx="114.09" cy="89.82" r="5.5"/>
  <polygon class="cls-1" points="88.28 107.33 76.84 98.2 81.44 92.44 88.28 97.9 95.12 92.44 99.72 98.2 88.28 107.33"/>
</svg>